<?xml version="1.0" encoding="utf-8"?>
<!-- Generator: Adobe Illustrator 27.5.0, SVG Export Plug-In . SVG Version: 6.00 Build 0)  -->
<svg version="1.1" xmlns="http://www.w3.org/2000/svg" xmlns:xlink="http://www.w3.org/1999/xlink" x="0px" y="0px"
	 viewBox="0 0 500 500" style="enable-background:new 0 0 500 500;" xml:space="preserve">
<g id="BACKGROUND">
	<rect x="0" style="fill:#FFFFFF;" width="499.999" height="500"/>
</g>
<g id="OBJECTS">
	<g>
		<g>
			<path style="fill:#AFD7E2;" d="M342.017,320.839c-3.136-0.768-8.423,5.223-22.025-5.377
				c-16.908-13.177-22.171,8.495-52.479-14.974c-25.155-19.479-37.618,8.338-45.295,14.562c-2.546,2.064-13.934,6.567-13.149-14.687
				c0.483-13.091-10.295-15.37-14.295-10.758c-7.876,9.081,4.667,21,0.087,22.295c-6.181,1.748-11.306-29.39-28.808-39.99
				c-15.19-9.2-37.26,12.496,0.31,28.581c9.225,3.949,13.846,7.512,16.599,11.62c2.476,3.695,1.021,8.736-3.01,10.614l-42.275,6.102
				h57.858h10.843h183.335C389.713,328.827,345.394,321.666,342.017,320.839z"/>
			<path style="fill:#688099;" d="M246.551,322.114c10.292,1.383,95.791,0.888,95.791,0.888l-3.782-1.688
				c-3.482,0.841-8.941,1.65-18.568-5.852c-16.908-13.177-22.171,8.495-52.479-14.974c-16.429-12.722-28.928-3.694-37.763,5.835
				c1.627,1.521,4.417,3.135,9.198,4.07C249.887,312.53,236.258,320.732,246.551,322.114z"/>
		</g>
		<g>
			<g>
				<path style="fill:#2E323D;" d="M175.459,237.009c-1.631-1.898-4.492-2.115-6.391-0.484l-2.214,1.902
					c-1.898,1.631-2.115,4.492-0.484,6.391c1.631,1.898,4.492,2.115,6.391,0.484l2.214-1.902
					C176.874,241.769,177.09,238.908,175.459,237.009z"/>
				<path style="fill:#2E323D;" d="M184.792,247.263c-1.631-1.898-4.492-2.115-6.391-0.484l-2.214,1.902
					c-1.898,1.631-2.115,4.492-0.484,6.391c1.631,1.898,4.492,2.115,6.391,0.484l2.214-1.902
					C186.206,252.023,186.423,249.162,184.792,247.263z"/>
				<path style="fill:#2E323D;" d="M194.116,257.14c-1.789-1.751-4.658-1.719-6.409,0.069l-2.041,2.086
					c-1.75,1.789-1.719,4.658,0.069,6.408c1.789,1.751,4.658,1.72,6.409-0.069l2.041-2.086
					C195.936,261.759,195.905,258.89,194.116,257.14z"/>
				<path style="fill:#2E323D;" d="M204.312,266.495c-1.828-1.71-4.695-1.615-6.405,0.213l-1.994,2.131
					c-1.71,1.828-1.615,4.695,0.213,6.405c1.828,1.71,4.695,1.615,6.405-0.213l1.994-2.131
					C206.234,271.073,206.139,268.205,204.312,266.495z"/>
				<path style="fill:#2E323D;" d="M214.19,276.222c-2-1.505-4.841-1.104-6.346,0.896l-1.755,2.332
					c-1.505,2-1.104,4.841,0.896,6.346s4.841,1.104,6.346-0.896l1.755-2.332C216.591,280.568,216.19,277.727,214.19,276.222z"/>
				<path style="fill:#2E323D;" d="M226.038,285.681c-2.123-1.325-4.919-0.678-6.244,1.445l-1.545,2.476
					c-1.325,2.123-0.678,4.919,1.445,6.244s4.919,0.678,6.244-1.445l1.545-2.476C228.809,289.801,228.162,287.006,226.038,285.681z"
					/>
				<path style="fill:#2E323D;" d="M238.093,294.14c-2.199-1.195-4.951-0.381-6.146,1.818l-1.394,2.565
					c-1.195,2.199-0.381,4.951,1.818,6.146c2.199,1.195,4.951,0.381,6.146-1.818l1.394-2.565
					C241.107,298.087,240.293,295.335,238.093,294.14z"/>
				<path style="fill:#2E323D;" d="M251.457,300.439c-2.327-0.92-4.96,0.221-5.881,2.548l-1.073,2.714
					c-0.92,2.327,0.221,4.96,2.548,5.881c2.327,0.92,4.96-0.22,5.881-2.548l1.073-2.714
					C254.925,303.992,253.785,301.359,251.457,300.439z"/>
				<path style="fill:#2E323D;" d="M126.887,169.115c0,0-9.33,6.681-6.257,14.977c3.072,8.295,35.486,48.698,39.48,51.309
					c3.994,2.611,8.142-3.226,8.142-3.226L126.887,169.115z"/>
				<path style="fill:#FFC943;" d="M149.671,154.55c0,0-9.464,1.664-17.402,7.5c-6.999,5.145-8.492,15.015-3.658,22.233
					c15.582,23.268,60.318,84.793,119.036,119.849c5.127,3.061,10.702,5.303,16.537,6.571c19.946,4.335,68.481,13.991,75.741,10.764
					c6.437-2.861,4.465-10.16,4.465-10.16L149.671,154.55z"/>
				<path style="fill:#FFE36E;" d="M130.803,187.52c4.478,6.555,10.704,15.278,18.454,25.207l19.152-43.091l-12.252-9.864
					L130.803,187.52z"/>
				<path style="fill:#E28929;" d="M168.185,235.563c21.026,23.857,48.271,49.947,79.462,68.568
					c2.465,1.472,5.036,2.749,7.687,3.824l2.787-33.808l-50.573-73.005l-9.447-7.605L168.185,235.563z"/>
				<path style="fill:#FFE36E;" d="M143.589,158.836c0,0,37.871,72.086,106.678,127.87c12.798,10.376,62.208,24.361,94.378,27.871
					c0.127-1.841-0.257-3.271-0.257-3.271L149.671,154.55c0,0-1.948,0.347-4.806,1.261
					C144.404,156.806,143.967,157.812,143.589,158.836z"/>
				<g>
					<g>
						<path style="fill:#4D5768;" d="M341.523,323.147c-0.029,0-0.058,0-0.086-0.001c-33.301-1.085-57.075-5.404-77.805-9.91
							c-6.041-1.313-11.867-3.627-17.314-6.879c-58.764-35.083-103.399-96.049-119.861-120.632
							c-3.567-5.326-5.343-13.865,0.366-21.858c0.831-1.165,2.452-1.436,3.616-0.603c1.165,0.832,1.435,2.451,0.602,3.616
							c-5.251,7.351-1.54,14.074-0.277,15.959c16.268,24.292,60.351,84.523,118.21,119.066c4.964,2.963,10.266,5.07,15.759,6.263
							c20.49,4.454,43.985,8.723,76.871,9.794c1.432,0.047,2.554,1.245,2.507,2.675
							C344.066,322.041,342.915,323.147,341.523,323.147z"/>
					</g>
				</g>
				<path style="fill:#EF3F1D;" d="M149.671,154.55c0,0,37.953,74.154,106.76,129.938c13.826,11.209,75.941,26,87.958,26.819
					c0,0,12.289-12.169,3.004-30.39l-31.952-29.964l-16.659-35.693c0,0-3.004-69.36-14.201-71.453
					c-11.197-2.093-16.932,22.749-16.932,22.749s-6.281,8.175-22.667-0.55c-16.386-8.725-32.771-20.605-28.812-32.348
					c3.96-11.743,9.149-16.522,5.052-21.575c-4.096-5.052-21.848-9.968-32.498,3.687C188.723,115.77,158.137,131.61,149.671,154.55z
					"/>
				<g>
					<path style="fill:#A31332;" d="M260.488,281.137c-58.352-47.308-97.426-113.659-107.955-132.734
						c-1.113,1.985-2.083,4.036-2.862,6.148c0,0,37.953,74.154,106.76,129.938c13.826,11.209,75.941,26,87.958,26.819
						c0,0,1.239-1.23,2.632-3.487C332.193,306.118,273.836,291.959,260.488,281.137z"/>
				</g>
				<path style="fill:#A31332;" d="M347.392,280.917l-31.952-29.964l-16.659-35.693c0,0-3.004-69.36-14.201-71.453
					c-11.197-2.093-16.932,22.749-16.932,22.749s-6.281,8.175-22.667-0.55c-6.964-3.708-13.922-7.987-19.324-12.583
					c-25.439,25.789-2.791,78.724,50.744,83.34l9.832,16.581c0,0-16.13,9.402,1.844,20.309c13.66,8.289,42.225,14.528,62.783,20.988
					C350.895,290.628,349.987,286.009,347.392,280.917z"/>
				<path style="fill:#FFE36E;" d="M276.843,190.563c0,3.213-2.605,5.818-5.818,5.818s-5.818-2.605-5.818-5.818
					c0-3.213,2.605-5.818,5.818-5.818S276.843,187.35,276.843,190.563z"/>
				<path style="fill:#FFE36E;" d="M278.418,208.039c0,3.213-2.605,5.818-5.818,5.818c-3.213,0-5.818-2.605-5.818-5.818
					c0-3.213,2.605-5.818,5.818-5.818C275.813,202.221,278.418,204.826,278.418,208.039z"/>
				<path style="fill:#FFE36E;" d="M281.043,225.973c0,3.213-2.605,5.818-5.818,5.818s-5.818-2.605-5.818-5.818
					c0-3.213,2.605-5.818,5.818-5.818S281.043,222.76,281.043,225.973z"/>
				<path style="fill:#FFC943;" d="M200.218,163.145l-11.495-47.375c0,0-8.874,4.601-18.385,12.425
					C172.311,152.405,200.218,163.145,200.218,163.145z"/>
				<path style="fill:#2E323D;" d="M145.841,145.577l-6.155,5.349c-2.073,1.802-2.614,4.801-1.288,7.206
					c4.19,7.604,14.58,24.973,32.95,46.99c2.503,3,7.368,1.811,8.223-2.001l1.884-8.395c0.263-1.174,0.069-2.405-0.545-3.44
					l-26.227-44.279C152.83,143.875,148.589,143.189,145.841,145.577z"/>
				<path style="fill:#2E323D;" d="M267.498,166.73c-1.031,1.132-7.567,7.236-22.517-0.724
					c-16.386-8.725-32.771-20.605-28.812-32.348c3.96-11.743,9.149-16.522,5.052-21.575c-4.096-5.052-21.848-9.968-32.498,3.687
					l11.495,47.375C200.218,163.145,251.509,186.05,267.498,166.73z"/>
				<g>
					<path style="fill:#FFC943;" d="M296.622,194.343h-25.478c-2.013,0-3.645-1.632-3.645-3.645v-0.269
						c0-2.013,1.632-3.646,3.645-3.646h25.478c2.013,0,3.646,1.632,3.646,3.646v0.269
						C300.267,192.711,298.635,194.343,296.622,194.343z"/>
					<path style="fill:#E28929;" d="M283.372,194.343h-12.229c-2.013,0-3.645-1.632-3.645-3.645v-0.269
						c0-2.013,1.632-3.646,3.645-3.646h12.229c2.013,0,3.645,1.632,3.645,3.646v0.269
						C287.017,192.711,285.385,194.343,283.372,194.343z"/>
				</g>
				<g>
					<path style="fill:#FFC943;" d="M298.107,210.809l-25.458,1.012c-2.012,0.08-3.707-1.486-3.787-3.498l-0.011-0.269
						c-0.08-2.012,1.486-3.707,3.498-3.787l25.458-1.012c2.012-0.08,3.707,1.486,3.787,3.498l0.011,0.269
						C301.684,209.033,300.118,210.729,298.107,210.809z"/>
					<path style="fill:#E28929;" d="M284.867,211.335l-12.219,0.486c-2.012,0.08-3.707-1.486-3.787-3.498l-0.011-0.269
						c-0.08-2.012,1.486-3.707,3.498-3.787l12.219-0.486c2.012-0.08,3.707,1.486,3.787,3.498l0.011,0.269
						C288.445,209.559,286.879,211.255,284.867,211.335z"/>
				</g>
				<g>
					<path style="fill:#FFC943;" d="M301.051,225.713l-25.165,3.983c-1.989,0.315-3.856-1.042-4.17-3.031l-0.042-0.266
						c-0.315-1.989,1.042-3.856,3.031-4.171l25.165-3.983c1.989-0.315,3.856,1.042,4.171,3.031l0.042,0.266
						C304.396,223.531,303.039,225.398,301.051,225.713z"/>
					<path style="fill:#E28929;" d="M287.964,227.784l-12.078,1.912c-1.989,0.315-3.856-1.042-4.17-3.031l-0.042-0.266
						c-0.315-1.989,1.042-3.856,3.031-4.171l12.078-1.912c1.989-0.315,3.856,1.042,4.171,3.031l0.042,0.266
						C291.31,225.602,289.953,227.469,287.964,227.784z"/>
				</g>
			</g>
			<path style="fill:#5C687C;" d="M152.118,149.511L177,192c0.19,0.324,0.262,0.705,0.203,1.076l-0.309,1.942
				c-0.238,1.496-2.212,1.882-2.995,0.586l-26.827-44.376c-0.372-0.615-0.27-1.404,0.244-1.906l0.416-0.405
				C149.04,147.645,151.195,147.936,152.118,149.511z"/>
			<path style="fill:#FF8C3E;" d="M349.599,286.321c-0.535-1.734-1.255-3.536-2.207-5.404l-31.952-29.964
				C293.737,242.365,279.265,261.847,349.599,286.321z"/>
			<path style="fill:#EF3F1D;" d="M227.414,190.483c2.232,8.581,8.229,21.5,24.331,29.643c4.242,2.145,9.203-1.199,8.829-5.938
				l-1.947-24.666c-0.258-3.272-3.058-5.779-6.337-5.617c-3.742,0.185-9.555,0.066-18.189-1.033
				C229.802,182.324,226.323,186.287,227.414,190.483z"/>
			<path style="fill:#FF8C3E;" d="M255.304,213.3c-12.158-7.12-17.066-17.337-19.031-24.89c-0.006-0.021,0.002-0.04-0.003-0.061
				c-0.925-0.103-1.862-0.212-2.822-0.334c-0.048-0.006-0.095-0.009-0.142-0.009c-0.377,0-0.61,0.228-0.714,0.363
				c-0.184,0.237-0.237,0.509-0.16,0.809c2.101,8.075,7.562,19.196,21.654,26.321c0.14,0.071,0.27,0.105,0.399,0.105
				c0.244,0,0.51-0.125,0.695-0.324c0.232-0.251,0.24-0.511,0.227-0.684L255.304,213.3z"/>
			<path style="fill:#A31332;" d="M224.559,236.406l-1.359-1.588l-1.296-1.643l-2.59-3.284l-2.599-3.271
				c-0.859-1.096-1.667-2.234-2.502-3.348c-1.65-2.246-3.332-4.464-4.951-6.729c-6.482-9.06-12.646-18.338-18.535-27.785
				c-5.877-9.458-11.413-19.12-16.844-28.83l-8.16-14.549l-4.076-7.271l-0.643-1.152c-1.534,1.665-3.004,3.412-4.378,5.231
				c1.147,2.128,2.329,4.236,3.522,6.337c1.36,2.452,2.797,4.859,4.236,7.264c1.413,2.42,2.904,4.795,4.392,7.17
				c5.983,9.483,12.246,18.784,18.648,27.979c6.476,9.146,13.089,18.192,20.088,26.936c7.08,8.68,14.491,17.094,22.492,24.897
				L224.559,236.406z"/>
			<path style="fill:#A31332;" d="M350.287,299.761c-3.795-0.563-7.588-1.193-11.375-1.884c-8.04-1.545-16.056-3.304-24.035-5.259
				c-7.971-1.986-15.912-4.13-23.813-6.432c-7.898-2.311-15.767-4.744-23.566-7.398c7.619,3.137,15.33,6.062,23.086,8.869
				c7.76,2.799,15.58,5.445,23.458,7.94c7.887,2.465,15.843,4.741,23.873,6.812c3.539,0.878,7.098,1.699,10.672,2.47
				C349.258,303.398,349.868,301.684,350.287,299.761z"/>
			<path style="fill:#FFE36E;" d="M173.552,129.701c0,0,5.288-6.007,12.981-8.957l4.301,17.072c0,0-6.744,3.261-14.226,1.999
				C176.608,139.814,173.763,134.759,173.552,129.701z"/>
			<path style="fill:#E28929;" d="M182.33,143.462c2.298-0.192,5.37-0.521,7.575-1.032c0.816-0.189,1.626,0.315,1.825,1.129
				l1.866,7.611c0.303,1.236-0.939,2.289-2.102,1.774c-2.524-1.118-6.399-3.234-10.112-6.852
				C180.442,145.175,181.021,143.572,182.33,143.462z"/>
		</g>
		<g>
			<circle style="fill:#AFD7E2;" cx="160.807" cy="244.848" r="16.071"/>
			<circle style="fill:#688099;" cx="125.793" cy="261.127" r="5.458"/>
			<path style="fill:#688099;" d="M227.212,314.578c0,3.808-3.087,6.896-6.896,6.896c-3.808,0-6.896-3.087-6.896-6.896
				c0-3.808,3.087-6.896,6.896-6.896C224.124,307.682,227.212,310.769,227.212,314.578z"/>
			<circle style="fill:#AFD7E2;" cx="120.009" cy="231.792" r="9.723"/>
		</g>
	</g>
</g>
<g id="TEXTS">
	<g>
		<g>
			<text transform="matrix(1 0 0 1 96.8029 375.4126)"><tspan x="0" y="0" style="fill:#2E323D; font-family:'Outfit-Black'; font-size:44.1306px;">cross</tspan><tspan x="123.255" y="0" style="fill:#EF3F1D; font-family:'Outfit-Black'; font-size:44.1306px;">country</tspan></text>
		</g>
		<g>
			
				<text transform="matrix(1 0 0 1 153.6885 395.2525)" style="fill:#2E323D; font-family:'Lato-Semibold'; font-size:13.8501px; letter-spacing:1;">your tagline goes here</text>
		</g>
	</g>
</g>
</svg>
